<svg width="116" height="45" viewBox="0 0 116 45" fill="none" xmlns="http://www.w3.org/2000/svg">
<path d="M15.8199 12H19.9569V32.5882H15.9655V19.2353L10.2261 28.7941H9.75996L4.02052 19.2647V32.5882H0V12H4.13706L9.99303 21.7353L15.8199 12ZM35.9933 30.7647C34.5171 32.2549 32.6914 33 30.5161 33C28.3407 33 26.5149 32.2549 25.0388 30.7647C23.5627 29.2745 22.8246 27.4314 22.8246 25.2353C22.8246 23.0588 23.5627 21.2255 25.0388 19.7353C26.5343 18.2255 28.3601 17.4706 30.5161 17.4706C32.672 17.4706 34.4977 18.2255 35.9933 19.7353C37.4888 21.2451 38.2366 23.0784 38.2366 25.2353C38.2366 27.4118 37.4888 29.2549 35.9933 30.7647ZM27.69 28.1471C28.4475 28.9118 29.3895 29.2941 30.5161 29.2941C31.6426 29.2941 32.5846 28.9118 33.3421 28.1471C34.0996 27.3824 34.4783 26.4118 34.4783 25.2353C34.4783 24.0588 34.0996 23.0882 33.3421 22.3235C32.5846 21.5588 31.6426 21.1765 30.5161 21.1765C29.3895 21.1765 28.4475 21.5588 27.69 22.3235C26.952 23.1078 26.5829 24.0784 26.5829 25.2353C26.5829 26.3922 26.952 27.3628 27.69 28.1471ZM48.9799 17.4706C50.5919 17.4706 51.9031 18.0098 52.9129 19.0882C53.9618 20.1863 54.4862 21.6765 54.4862 23.5588V32.5882H50.7279V24.0294C50.7279 23.0686 50.4657 22.3235 49.9413 21.7941C49.4363 21.2647 48.7371 21 47.8436 21C46.8531 21 46.0664 21.3137 45.4838 21.9412C44.9205 22.549 44.6389 23.451 44.6389 24.6471V32.5882H40.8806V17.8824H44.6389V19.5294C45.5323 18.1569 46.9793 17.4706 48.9799 17.4706ZM71.8543 26.7941H60.8707C61.3566 28.6372 62.726 29.5588 64.9787 29.5588C66.4161 29.5588 67.504 29.0686 68.2417 28.0882L71.2716 29.8529C69.8347 31.951 67.7173 33 64.9204 33C62.5121 33 60.5794 32.2647 59.1227 30.7941C57.666 29.3235 56.9376 27.4706 56.9376 25.2353C56.9376 23.0392 57.6566 21.1961 59.0935 19.7059C60.5118 18.2157 62.3566 17.4706 64.629 17.4706C66.785 17.4706 68.5429 18.2157 69.9023 19.7059C71.3008 21.1961 72 23.0392 72 25.2353C72 25.6471 71.9516 26.1666 71.8543 26.7941ZM60.8125 23.8529H68.2417C68.0284 22.8922 67.5914 22.1569 66.9306 21.6471C66.2897 21.1372 65.5228 20.8824 64.629 20.8824C63.6192 20.8824 62.7842 21.1471 62.1235 21.6765C61.4633 22.1863 61.0263 22.9118 60.8125 23.8529Z" fill="white"/>
<path d="M82.4128 24.5588V32.0882H79.4366V24.5588V24.4299L79.3743 24.3171L72.8474 12.5H76.2224L80.4945 20.8167L80.9392 21.6825L81.384 20.8167L85.656 12.5H89.0293L82.4756 24.3163L82.4128 24.4294V24.5588ZM96.0164 30.0588C97.4074 30.0588 98.5485 29.6275 99.3793 28.7331L101.554 30.0045C100.24 31.6635 98.3945 32.5 95.9583 32.5C93.6696 32.5 91.8805 31.8029 90.5385 30.4429C89.1877 29.074 88.5059 27.351 88.5059 25.2353C88.5059 23.1595 89.1781 21.4431 90.5142 20.0523L90.5165 20.0499C91.8247 18.67 93.5259 17.9706 95.6681 17.9706C97.6855 17.9706 99.2987 18.6638 100.551 20.0422L100.551 20.0422L100.556 20.0473C101.856 21.4374 102.511 23.1554 102.511 25.2353C102.511 25.5209 102.485 25.8729 102.432 26.2941H91.924H91.2758L91.4404 26.9211C91.7081 27.9404 92.2321 28.7427 93.0303 29.282C93.8201 29.8155 94.8298 30.0588 96.0164 30.0588ZM91.3783 23.7426L91.2402 24.3529H91.866H99.267H99.8896L99.7552 23.745C99.5225 22.6932 99.0351 21.8478 98.27 21.254C97.5354 20.6686 96.6597 20.3824 95.6681 20.3824C94.5724 20.3824 93.6248 20.6721 92.8622 21.284C92.1006 21.8758 91.6123 22.7089 91.3783 23.7426ZM111.029 24.1608L111.037 24.1629L111.045 24.1646C111.643 24.2972 112.179 24.457 112.655 24.6424L112.663 24.6454L112.671 24.6482C113.124 24.8075 113.587 25.0494 114.059 25.3799L114.068 25.3862L114.077 25.3921C114.522 25.6761 114.868 26.059 115.119 26.5508C115.368 27.0382 115.5 27.6148 115.5 28.2941C115.5 29.6593 115.003 30.669 114.023 31.3893C113.001 32.1204 111.726 32.5 110.166 32.5C108.74 32.5 107.579 32.2209 106.656 31.6914C105.859 31.2334 105.217 30.5745 104.732 29.6987L107.085 28.3575C107.331 28.826 107.663 29.2106 108.088 29.4959C108.664 29.8832 109.368 30.0588 110.166 30.0588C110.87 30.0588 111.484 29.9506 111.935 29.6654C112.426 29.3558 112.669 28.8732 112.669 28.2941C112.669 27.7154 112.259 27.2926 111.77 26.9927C111.267 26.6848 110.551 26.4226 109.655 26.1928C109.008 26.0195 108.466 25.8482 108.022 25.6797C107.595 25.5175 107.122 25.2794 106.603 24.9599C106.131 24.6516 105.778 24.2743 105.531 23.8279C105.303 23.3614 105.181 22.8055 105.181 22.1471C105.181 20.8333 105.645 19.8473 106.558 19.128L106.559 19.1272C107.521 18.3646 108.723 17.9706 110.195 17.9706C111.294 17.9706 112.282 18.2253 113.17 18.729L113.17 18.729L113.177 18.7327C113.916 19.1374 114.526 19.6922 115.009 20.4042L112.713 21.6736C112.483 21.32 112.2 21.0277 111.86 20.8079C111.378 20.4971 110.816 20.3529 110.195 20.3529C109.629 20.3529 109.116 20.4915 108.688 20.7975C108.256 21.0992 108.012 21.5309 108.012 22.0588C108.012 22.6374 108.421 23.0603 108.911 23.3602C109.414 23.6685 110.131 23.9308 111.029 24.1608Z" stroke="white"/>
</svg>
